<svg width="20" height="20" viewBox="0 0 20 20" fill="none" xmlns="http://www.w3.org/2000/svg">
<path d="M9.87109 18.7744C14.7883 18.7744 18.7744 14.7883 18.7744 9.87109C18.7744 4.95393 14.7883 0.967773 9.87109 0.967773C4.95393 0.967773 0.967773 4.95393 0.967773 9.87109C0.967773 14.7883 4.95393 18.7744 9.87109 18.7744Z" stroke="white" stroke-width="1.25156" stroke-linecap="round" stroke-linejoin="round"/>
<path d="M9.87109 11.8486C10.9638 11.8486 11.8496 10.9628 11.8496 9.87012C11.8496 8.77741 10.9638 7.8916 9.87109 7.8916C8.77839 7.8916 7.89258 8.77741 7.89258 9.87012C7.89258 10.9628 8.77839 11.8486 9.87109 11.8486Z" stroke="white" stroke-width="1.25156" stroke-linecap="round" stroke-linejoin="round"/>
<path d="M9.87085 11.8486V18.7734M7.89233 9.87012L1.21484 7.8916M11.8494 9.87012L18.5269 7.8916" stroke="white" stroke-width="1.25156" stroke-linecap="round" stroke-linejoin="round"/>
</svg>
