<svg width="24" height="24" viewBox="0 0 24 24" fill="none" xmlns="http://www.w3.org/2000/svg">
<path d="M12 16C13.66 16 15 14.66 15 13C15 11.88 14.39 10.9 13.5 10.39L3.79 4.77L9.32 14.35C9.82 15.33 10.83 16 12 16ZM12 3C10.19 3 8.5 3.5 7.03 4.32L9.13 5.53C10 5.19 11 5 12 5C16.42 5 20 8.58 20 13C20 15.21 19.11 17.21 17.66 18.65H17.65C17.5573 18.7425 17.4837 18.8524 17.4336 18.9734C17.3834 19.0943 17.3576 19.224 17.3576 19.355C17.3576 19.486 17.3834 19.6157 17.4336 19.7366C17.4837 19.8576 17.5573 19.9675 17.65 20.06C18.04 20.45 18.68 20.45 19.07 20.07C20 19.1426 20.7376 18.0407 21.2405 16.8274C21.7433 15.6141 22.0014 14.3134 22 13C22 7.5 17.5 3 12 3ZM2 13C2 15.76 3.12 18.26 4.93 20.07C5.32 20.45 5.95 20.45 6.34 20.06C6.4327 19.9675 6.50625 19.8576 6.55643 19.7366C6.60661 19.6157 6.63244 19.486 6.63244 19.355C6.63244 19.224 6.60661 19.0943 6.55643 18.9734C6.50625 18.8524 6.4327 18.7425 6.34 18.65C5.5963 17.9093 5.00662 17.0287 4.605 16.059C4.20338 15.0893 3.99775 14.0496 4 13C4 12 4.19 11 4.54 10.1L3.33 8C2.5 9.5 2 11.18 2 13Z" fill="white"/>
</svg>
