<?xml version="1.0" encoding="UTF-8" standalone="no"?>
<svg
   xmlns:dc="http://purl.org/dc/elements/1.1/"
   xmlns:cc="http://creativecommons.org/ns#"
   xmlns:rdf="http://www.w3.org/1999/02/22-rdf-syntax-ns#"
   xmlns:svg="http://www.w3.org/2000/svg"
   xmlns="http://www.w3.org/2000/svg"
   xmlns:sodipodi="http://sodipodi.sourceforge.net/DTD/sodipodi-0.dtd"
   xmlns:inkscape="http://www.inkscape.org/namespaces/inkscape"
   height="24px"
   viewBox="0 0 24 24"
   width="24px"
   fill="#000000"
   version="1.1"
   id="svg3767"
   sodipodi:docname="flip_black_24dp-flipped.svg"
   inkscape:version="0.92.5 (2060ec1f9f, 2020-04-08)">
  <metadata
     id="metadata3773">
    <rdf:RDF>
      <cc:Work
         rdf:about="">
        <dc:format>image/svg+xml</dc:format>
        <dc:type
           rdf:resource="http://purl.org/dc/dcmitype/StillImage" />
        <dc:title></dc:title>
      </cc:Work>
    </rdf:RDF>
  </metadata>
  <defs
     id="defs3771" />
  <sodipodi:namedview
     pagecolor="#ffffff"
     bordercolor="#666666"
     borderopacity="1"
     objecttolerance="10"
     gridtolerance="10"
     guidetolerance="10"
     inkscape:pageopacity="0"
     inkscape:pageshadow="2"
     inkscape:window-width="3840"
     inkscape:window-height="2062"
     id="namedview3769"
     showgrid="false"
     inkscape:zoom="75.541667"
     inkscape:cx="12"
     inkscape:cy="10.745525"
     inkscape:window-x="0"
     inkscape:window-y="0"
     inkscape:window-maximized="1"
     inkscape:current-layer="svg3767" />
  <path
     d="M 24,0 H 0 v 24 h 24 z"
     id="path3763"
     inkscape:connector-curvature="0"
     style="fill:none" />
  <path
     d="M 9,21 H 7 V 19 H 9 Z M 5,9 H 3 V 7 H 5 Z M 21,5 v 14 c 0,1.1 -0.9,2 -2,2 h -4 v -2 h 4 V 5 H 15 V 3 h 4 c 1.1,0 2,0.9 2,2 z M 5,3 V 5 H 3 C 3,3.9 3.9,3 5,3 Z m 8,20 H 11 V 1 h 2 z M 5,17 H 3 V 15 H 5 Z M 9,5 H 7 V 3 H 9 Z M 5,13 H 3 v -2 h 2 z m 0,8 C 3.9,21 3,20.1 3,19 h 2 z"
     id="path3765"
     inkscape:connector-curvature="0" />
</svg>
