<svg width="13" height="13" viewBox="0 0 13 13" fill="none" xmlns="http://www.w3.org/2000/svg">
<path d="M6.58331 7.99998C7.27367 7.99998 7.83331 7.44034 7.83331 6.74998C7.83331 6.05963 7.27367 5.49998 6.58331 5.49998C5.89296 5.49998 5.33331 6.05963 5.33331 6.74998C5.33331 7.44034 5.89296 7.99998 6.58331 7.99998Z" stroke="white" stroke-width="0.833333" stroke-linecap="round" stroke-linejoin="round"/>
<path d="M9.66667 8C9.6112 8.12567 9.59466 8.26508 9.61916 8.40024C9.64367 8.53541 9.70811 8.66013 9.80417 8.75833L9.82917 8.78333C9.90665 8.86073 9.96811 8.95263 10.01 9.0538C10.052 9.15496 10.0736 9.2634 10.0736 9.37291C10.0736 9.48243 10.052 9.59087 10.01 9.69203C9.96811 9.7932 9.90665 9.8851 9.82917 9.9625C9.75177 10.04 9.65987 10.1014 9.5587 10.1434C9.45754 10.1853 9.3491 10.2069 9.23958 10.2069C9.13007 10.2069 9.02163 10.1853 8.92047 10.1434C8.8193 10.1014 8.72739 10.04 8.65 9.9625L8.625 9.9375C8.5268 9.84144 8.40208 9.777 8.26691 9.7525C8.13175 9.72799 7.99234 9.74453 7.86667 9.8C7.74343 9.85282 7.63833 9.94052 7.56429 10.0523C7.49026 10.1641 7.45054 10.2951 7.45 10.4292V10.5C7.45 10.721 7.3622 10.933 7.20592 11.0893C7.04964 11.2455 6.83768 11.3333 6.61667 11.3333C6.39565 11.3333 6.18369 11.2455 6.02741 11.0893C5.87113 10.933 5.78333 10.721 5.78333 10.5V10.4625C5.78011 10.3246 5.73547 10.1908 5.65521 10.0786C5.57496 9.96642 5.46281 9.88095 5.33333 9.83333C5.20766 9.77787 5.06825 9.76132 4.93309 9.78583C4.79792 9.81034 4.6732 9.87477 4.575 9.97083L4.55 9.99583C4.47261 10.0733 4.3807 10.1348 4.27953 10.1767C4.17837 10.2187 4.06993 10.2402 3.96042 10.2402C3.8509 10.2402 3.74246 10.2187 3.6413 10.1767C3.54013 10.1348 3.44823 10.0733 3.37083 9.99583C3.29335 9.91844 3.23189 9.82653 3.18995 9.72536C3.14801 9.6242 3.12643 9.51576 3.12643 9.40625C3.12643 9.29673 3.14801 9.1883 3.18995 9.08713C3.23189 8.98597 3.29335 8.89406 3.37083 8.81666L3.39583 8.79166C3.49189 8.69346 3.55633 8.56874 3.58084 8.43358C3.60534 8.29841 3.5888 8.159 3.53333 8.03333C3.48052 7.91009 3.39281 7.80499 3.28103 7.73096C3.16924 7.65693 3.03824 7.6172 2.90417 7.61666H2.83333C2.61232 7.61666 2.40036 7.52887 2.24408 7.37259C2.0878 7.21631 2 7.00434 2 6.78333C2 6.56232 2.0878 6.35036 2.24408 6.19408C2.40036 6.0378 2.61232 5.95 2.83333 5.95H2.87083C3.00875 5.94677 3.1425 5.90213 3.25471 5.82188C3.36691 5.74162 3.45238 5.62947 3.5 5.5C3.55546 5.37432 3.57201 5.23492 3.5475 5.09975C3.52299 4.96459 3.45856 4.83986 3.3625 4.74166L3.3375 4.71666C3.26002 4.63927 3.19855 4.54736 3.15662 4.4462C3.11468 4.34503 3.09309 4.23659 3.09309 4.12708C3.09309 4.01757 3.11468 3.90913 3.15662 3.80796C3.19855 3.7068 3.26002 3.61489 3.3375 3.5375C3.41489 3.46002 3.5068 3.39855 3.60797 3.35661C3.70913 3.31468 3.81757 3.29309 3.92708 3.29309C4.0366 3.29309 4.14504 3.31468 4.2462 3.35661C4.34737 3.39855 4.43927 3.46002 4.51667 3.5375L4.54167 3.5625C4.63987 3.65855 4.76459 3.72299 4.89975 3.7475C5.03492 3.77201 5.17433 3.75546 5.3 3.7H5.33333C5.45657 3.64718 5.56167 3.55948 5.63571 3.44769C5.70974 3.3359 5.74947 3.20491 5.75 3.07083V3C5.75 2.77898 5.8378 2.56702 5.99408 2.41074C6.15036 2.25446 6.36232 2.16666 6.58333 2.16666C6.80435 2.16666 7.01631 2.25446 7.17259 2.41074C7.32887 2.56702 7.41667 2.77898 7.41667 3V3.0375C7.4172 3.17158 7.45693 3.30257 7.53096 3.41436C7.60499 3.52615 7.7101 3.61385 7.83333 3.66666C7.95901 3.72213 8.09841 3.73867 8.23358 3.71417C8.36874 3.68966 8.49347 3.62522 8.59167 3.52916L8.61667 3.50416C8.69406 3.42668 8.78597 3.36522 8.88713 3.32328C8.9883 3.28134 9.09674 3.25976 9.20625 3.25976C9.31576 3.25976 9.4242 3.28134 9.52537 3.32328C9.62653 3.36522 9.71844 3.42668 9.79583 3.50416C9.87331 3.58156 9.93478 3.67347 9.97672 3.77463C10.0187 3.8758 10.0402 3.98423 10.0402 4.09375C10.0402 4.20326 10.0187 4.3117 9.97672 4.41286C9.93478 4.51403 9.87331 4.60594 9.79583 4.68333L9.77083 4.70833C9.67478 4.80653 9.61034 4.93125 9.58583 5.06642C9.56132 5.20158 9.57787 5.34099 9.63333 5.46666V5.5C9.68615 5.62323 9.77385 5.72834 9.88564 5.80237C9.99743 5.8764 10.1284 5.91613 10.2625 5.91666H10.3333C10.5543 5.91666 10.7663 6.00446 10.9226 6.16074C11.0789 6.31702 11.1667 6.52898 11.1667 6.75C11.1667 6.97101 11.0789 7.18297 10.9226 7.33925C10.7663 7.49553 10.5543 7.58333 10.3333 7.58333H10.2958C10.1618 7.58387 10.0308 7.62359 9.91897 7.69763C9.80719 7.77166 9.71948 7.87676 9.66667 8Z" stroke="white" stroke-width="0.833333" stroke-linecap="round" stroke-linejoin="round"/>
</svg>
