<svg
    xmlns="http://www.w3.org/2000/svg"
    viewBox="0 0 24 24"
    id="vector">
    <path
        id="path"
        d="M 21 6 L 3 6 C 1.9 6 1 6.9 1 8 L 1 16 C 1 17.1 1.9 18 3 18 L 21 18 C 22.1 18 23 17.1 23 16 L 23 8 C 23 6.9 22.1 6 21 6 Z M 11 13 L 8 13 L 8 16 L 6 16 L 6 13 L 3 13 L 3 11 L 6 11 L 6 8 L 8 8 L 8 11 L 11 11 L 11 13 Z M 15.5 15 C 14.67 15 14 14.33 14 13.5 C 14 12.67 14.67 12 15.5 12 C 16.33 12 17 12.67 17 13.5 C 17 14.33 16.33 15 15.5 15 Z M 19.5 12 C 18.67 12 18 11.33 18 10.5 C 18 9.67 18.67 9 19.5 9 C 20.33 9 21 9.67 21 10.5 C 21 11.33 20.33 12 19.5 12 Z"
        fill="#0071c5"/>
</svg>
