<svg width="24" height="24" viewBox="0 0 24 24" fill="none" xmlns="http://www.w3.org/2000/svg">
<path d="M12 1.37988L9.14 12.0599C8.8 13.0999 9.04 14.2899 9.86 15.1199C10.4245 15.6818 11.1885 15.9973 11.985 15.9973C12.7815 15.9973 13.5455 15.6818 14.11 15.1199C14.9 14.3299 15.16 13.1999 14.89 12.2099M14.6 3.34988L15.22 5.67988C16.6418 6.30365 17.8511 7.32814 18.7 8.62813C19.5489 9.92812 20.0006 11.4473 20 12.9999C20 15.2099 19.11 17.2099 17.66 18.6499H17.65C17.5573 18.7424 17.4837 18.8523 17.4336 18.9733C17.3834 19.0942 17.3576 19.2239 17.3576 19.3549C17.3576 19.4859 17.3834 19.6155 17.4336 19.7365C17.4837 19.8575 17.5573 19.9674 17.65 20.0599C18.04 20.4499 18.68 20.4499 19.07 20.0699C20 19.1425 20.7376 18.0405 21.2405 16.8272C21.7433 15.6139 22.0014 14.3132 22 12.9999C22 8.37988 18.86 4.49988 14.6 3.34988ZM9.4 3.35988C5.15 4.49988 2 8.39988 2 12.9999C2 15.7599 3.12 18.2599 4.93 20.0699C5.32 20.4499 5.95 20.4499 6.34 20.0599C6.4327 19.9674 6.50625 19.8575 6.55643 19.7365C6.60661 19.6155 6.63244 19.4859 6.63244 19.3549C6.63244 19.2239 6.60661 19.0942 6.55643 18.9733C6.50625 18.8523 6.4327 18.7424 6.34 18.6499C5.5963 17.9092 5.00662 17.0286 4.605 16.0589C4.20338 15.0892 3.99775 14.0495 4 12.9999C4 9.64988 5.94 6.85988 8.79 5.64988" fill="white"/>
</svg>
