<svg width="24" height="24" viewBox="0 0 24 24" fill="none" xmlns="http://www.w3.org/2000/svg">
<path d="M12 16C11.2044 16 10.4413 15.6839 9.87868 15.1213C9.31608 14.5587 9.00001 13.7956 9.00001 13C9.00001 11.88 9.61001 10.9 10.5 10.39L20.21 4.77L14.68 14.35C14.18 15.33 13.17 16 12 16ZM12 3C13.81 3 15.5 3.5 16.97 4.32L14.87 5.53C14 5.19 13 5 12 5C9.87827 5 7.84344 5.84285 6.34315 7.34315C4.84286 8.84344 4.00001 10.8783 4.00001 13C4.00001 15.21 4.89001 17.21 6.34001 18.65H6.35001C6.74001 19.04 6.74001 19.67 6.35001 20.06C5.96001 20.45 5.32001 20.45 4.93001 20.07C3.99998 19.1426 3.26236 18.0407 2.75954 16.8274C2.25672 15.6141 1.99859 14.3134 2.00001 13C2.00001 10.3478 3.05357 7.8043 4.92894 5.92893C6.8043 4.05357 9.34784 3 12 3ZM22 13C22 15.76 20.88 18.26 19.07 20.07C18.68 20.45 18.05 20.45 17.66 20.06C17.5673 19.9675 17.4938 19.8576 17.4436 19.7366C17.3934 19.6157 17.3676 19.486 17.3676 19.355C17.3676 19.224 17.3934 19.0943 17.4436 18.9734C17.4938 18.8524 17.5673 18.7425 17.66 18.65C18.4037 17.9093 18.9934 17.0287 19.395 16.059C19.7966 15.0893 20.0023 14.0496 20 13C20 12 19.81 11 19.46 10.1L20.67 8C21.5 9.5 22 11.18 22 13Z" fill="white"/>
</svg>
