<svg width="48" height="41" viewBox="0 0 48 41" fill="none" xmlns="http://www.w3.org/2000/svg">
<path d="M23 24C24.6569 24 26 22.6569 26 21C26 19.3431 24.6569 18 23 18C21.3431 18 20 19.3431 20 21C20 22.6569 21.3431 24 23 24Z" stroke="#0071C5" stroke-width="2" stroke-linecap="round" stroke-linejoin="round"/>
<path d="M30.4 24C30.2669 24.3016 30.2272 24.6362 30.286 24.9606C30.3448 25.285 30.4995 25.5843 30.73 25.82L30.79 25.88C30.976 26.0657 31.1235 26.2863 31.2241 26.5291C31.3248 26.7719 31.3766 27.0322 31.3766 27.295C31.3766 27.5578 31.3248 27.8181 31.2241 28.0609C31.1235 28.3037 30.976 28.5243 30.79 28.71C30.6043 28.896 30.3837 29.0435 30.1409 29.1441C29.8981 29.2448 29.6378 29.2966 29.375 29.2966C29.1122 29.2966 28.8519 29.2448 28.6091 29.1441C28.3663 29.0435 28.1457 28.896 27.96 28.71L27.9 28.65C27.6643 28.4195 27.365 28.2648 27.0406 28.206C26.7162 28.1472 26.3816 28.1869 26.08 28.32C25.7842 28.4468 25.532 28.6572 25.3543 28.9255C25.1766 29.1938 25.0813 29.5082 25.08 29.83V30C25.08 30.5304 24.8693 31.0391 24.4942 31.4142C24.1191 31.7893 23.6104 32 23.08 32C22.5496 32 22.0409 31.7893 21.6658 31.4142C21.2907 31.0391 21.08 30.5304 21.08 30V29.91C21.0723 29.579 20.9651 29.258 20.7725 28.9887C20.5799 28.7194 20.3107 28.5143 20 28.4C19.6984 28.2669 19.3638 28.2272 19.0394 28.286C18.715 28.3448 18.4157 28.4995 18.18 28.73L18.12 28.79C17.9343 28.976 17.7137 29.1235 17.4709 29.2241C17.2281 29.3248 16.9678 29.3766 16.705 29.3766C16.4422 29.3766 16.1819 29.3248 15.9391 29.2241C15.6963 29.1235 15.4757 28.976 15.29 28.79C15.104 28.6043 14.9565 28.3837 14.8559 28.1409C14.7552 27.8981 14.7034 27.6378 14.7034 27.375C14.7034 27.1122 14.7552 26.8519 14.8559 26.6091C14.9565 26.3663 15.104 26.1457 15.29 25.96L15.35 25.9C15.5805 25.6643 15.7352 25.365 15.794 25.0406C15.8528 24.7162 15.8131 24.3816 15.68 24.08C15.5532 23.7842 15.3428 23.532 15.0745 23.3543C14.8062 23.1766 14.4918 23.0813 14.17 23.08H14C13.4696 23.08 12.9609 22.8693 12.5858 22.4942C12.2107 22.1191 12 21.6104 12 21.08C12 20.5496 12.2107 20.0409 12.5858 19.6658C12.9609 19.2907 13.4696 19.08 14 19.08H14.09C14.421 19.0723 14.742 18.9651 15.0113 18.7725C15.2806 18.5799 15.4857 18.3107 15.6 18C15.7331 17.6984 15.7728 17.3638 15.714 17.0394C15.6552 16.715 15.5005 16.4157 15.27 16.18L15.21 16.12C15.024 15.9343 14.8765 15.7137 14.7759 15.4709C14.6752 15.2281 14.6234 14.9678 14.6234 14.705C14.6234 14.4422 14.6752 14.1819 14.7759 13.9391C14.8765 13.6963 15.024 13.4757 15.21 13.29C15.3957 13.104 15.6163 12.9565 15.8591 12.8559C16.1019 12.7552 16.3622 12.7034 16.625 12.7034C16.8878 12.7034 17.1481 12.7552 17.3909 12.8559C17.6337 12.9565 17.8543 13.104 18.04 13.29L18.1 13.35C18.3357 13.5805 18.635 13.7352 18.9594 13.794C19.2838 13.8528 19.6184 13.8131 19.92 13.68H20C20.2958 13.5532 20.548 13.3428 20.7257 13.0745C20.9034 12.8062 20.9987 12.4918 21 12.17V12C21 11.4696 21.2107 10.9609 21.5858 10.5858C21.9609 10.2107 22.4696 10 23 10C23.5304 10 24.0391 10.2107 24.4142 10.5858C24.7893 10.9609 25 11.4696 25 12V12.09C25.0013 12.4118 25.0966 12.7262 25.2743 12.9945C25.452 13.2628 25.7042 13.4732 26 13.6C26.3016 13.7331 26.6362 13.7728 26.9606 13.714C27.285 13.6552 27.5843 13.5005 27.82 13.27L27.88 13.21C28.0657 13.024 28.2863 12.8765 28.5291 12.7759C28.7719 12.6752 29.0322 12.6234 29.295 12.6234C29.5578 12.6234 29.8181 12.6752 30.0609 12.7759C30.3037 12.8765 30.5243 13.024 30.71 13.21C30.896 13.3957 31.0435 13.6163 31.1441 13.8591C31.2448 14.1019 31.2966 14.3622 31.2966 14.625C31.2966 14.8878 31.2448 15.1481 31.1441 15.3909C31.0435 15.6337 30.896 15.8543 30.71 16.04L30.65 16.1C30.4195 16.3357 30.2648 16.635 30.206 16.9594C30.1472 17.2838 30.1869 17.6184 30.32 17.92V18C30.4468 18.2958 30.6572 18.548 30.9255 18.7257C31.1938 18.9034 31.5082 18.9987 31.83 19H32C32.5304 19 33.0391 19.2107 33.4142 19.5858C33.7893 19.9609 34 20.4696 34 21C34 21.5304 33.7893 22.0391 33.4142 22.4142C33.0391 22.7893 32.5304 23 32 23H31.91C31.5882 23.0013 31.2738 23.0966 31.0055 23.2743C30.7372 23.452 30.5268 23.7042 30.4 24V24Z" stroke="#0071C5" stroke-width="2" stroke-linecap="round" stroke-linejoin="round"/>
</svg>
