<svg width="24" height="24" viewBox="0 0 24 24" fill="none" xmlns="http://www.w3.org/2000/svg">
<g clip-path="url(#clip0_45_3836)">
<path d="M17.25 7.875H12.75V4.875H21C21.2983 4.87466 21.5842 4.75603 21.7951 4.54513C22.006 4.33422 22.1247 4.04827 22.125 3.75V0.75H20.625V3.375H12.375C12.0767 3.37533 11.7908 3.49397 11.5799 3.70487C11.369 3.91578 11.2503 4.20173 11.25 4.5V7.875H6.75C5.15925 7.8768 3.63417 8.50952 2.50935 9.63435C1.38452 10.7592 0.751799 12.2843 0.75 13.875V18.6072C0.751278 19.7387 1.20133 20.8235 2.00143 21.6236C2.80153 22.4237 3.88632 22.8737 5.01783 22.875H5.1022C5.72805 22.8758 6.34638 22.7387 6.91315 22.4732C7.47992 22.2078 7.98119 21.8207 8.38125 21.3394L10.8516 18.375H13.131L15.5997 21.5843C16.1432 22.2907 16.8941 22.8092 17.7472 23.0671C18.6003 23.325 19.5128 23.3093 20.3565 23.0223C21.2003 22.7353 21.933 22.1914 22.4519 21.4668C22.9709 20.7422 23.2499 19.8734 23.25 18.9822V13.875C23.2482 12.2843 22.6155 10.7592 21.4907 9.63435C20.3658 8.50952 18.8407 7.8768 17.25 7.875ZM21.75 18.9822C21.75 19.5602 21.569 20.1237 21.2324 20.5937C20.8959 21.0636 20.4206 21.4164 19.8734 21.6025C19.3262 21.7886 18.7344 21.7988 18.1811 21.6315C17.6278 21.4642 17.1408 21.1278 16.7883 20.6697L13.8693 16.875H10.1487L7.22869 20.3791C6.96926 20.6912 6.6442 20.9422 6.27667 21.1144C5.90915 21.2865 5.50819 21.3755 5.10234 21.375H5.01797C4.28412 21.3742 3.58055 21.0824 3.06163 20.5635C2.54271 20.0446 2.25082 19.341 2.25 18.6072V13.875C2.25134 12.6819 2.72588 11.5381 3.5695 10.6945C4.41312 9.85088 5.55694 9.37634 6.75 9.375H17.25C18.4431 9.37634 19.5869 9.85088 20.4305 10.6945C21.2741 11.5381 21.7487 12.6819 21.75 13.875V18.9822Z" fill="white"/>
<path d="M16.875 11.625H18.375V13.125H16.875V11.625ZM16.875 15.375H18.375V16.875H16.875V15.375ZM15 13.5H16.5V15H15V13.5ZM18.75 13.5H20.25V15H18.75V13.5ZM7.125 11.625H5.625V13.5H3.75V15H5.625V16.875H7.125V15H9V13.5H7.125V11.625Z" fill="white"/>
</g>
<defs>
<clipPath id="clip0_45_3836">
<rect width="24" height="24" fill="white"/>
</clipPath>
</defs>
</svg>
