<svg width="13" height="14" viewBox="0 0 13 14" fill="none" xmlns="http://www.w3.org/2000/svg">
<g clip-path="url(#clip0_57_2110)">
<path d="M9.34375 4.8656H6.90625V3.2406H11.375C11.5366 3.24042 11.6915 3.17616 11.8057 3.06192C11.9199 2.94768 11.9842 2.79279 11.9844 2.63123V1.00623H11.1719V2.4281H6.70312C6.54156 2.42828 6.38667 2.49254 6.27243 2.60678C6.15819 2.72102 6.09393 2.87592 6.09375 3.03748V4.8656H3.65625C2.7946 4.86658 1.96851 5.2093 1.35923 5.81858C0.749947 6.42786 0.407224 7.25395 0.40625 8.1156V10.6789C0.406942 11.2918 0.650722 11.8794 1.08411 12.3127C1.51749 12.7461 2.10509 12.9899 2.71799 12.9906H2.76369C3.10269 12.9911 3.43762 12.9167 3.74462 12.773C4.05162 12.6292 4.32314 12.4195 4.53984 12.1588L5.87793 10.5531H7.11262L8.44985 12.2915C8.74422 12.6741 9.15099 12.9549 9.61308 13.0946C10.0752 13.2343 10.5694 13.2259 11.0264 13.0704C11.4835 12.9149 11.8804 12.6203 12.1615 12.2278C12.4426 11.8354 12.5937 11.3647 12.5938 10.882V8.1156C12.5928 7.25395 12.2501 6.42786 11.6408 5.81858C11.0315 5.2093 10.2054 4.86658 9.34375 4.8656ZM11.7812 10.882C11.7812 11.1951 11.6832 11.5003 11.5009 11.7549C11.3186 12.0094 11.0612 12.2005 10.7648 12.3013C10.4683 12.4022 10.1478 12.4076 9.84808 12.317C9.54838 12.2264 9.28458 12.0442 9.09368 11.796L7.51253 9.7406H5.49722L3.91554 11.6387C3.77501 11.8077 3.59894 11.9437 3.39987 12.0369C3.20079 12.1302 2.9836 12.1784 2.76377 12.1781H2.71807C2.32057 12.1777 1.93947 12.0196 1.65838 11.7385C1.3773 11.4575 1.21919 11.0764 1.21875 10.6789V8.1156C1.21948 7.46936 1.47652 6.84979 1.93348 6.39283C2.39044 5.93587 3.01001 5.67883 3.65625 5.6781H9.34375C9.98999 5.67883 10.6096 5.93587 11.0665 6.39283C11.5235 6.84979 11.7805 7.46936 11.7812 8.1156V10.882Z" fill="#0071C5"/>
<path d="M9.14062 6.89685H9.95312V7.70935H9.14062V6.89685ZM9.14062 8.9281H9.95312V9.7406H9.14062V8.9281ZM8.125 7.91248H8.9375V8.72498H8.125V7.91248ZM10.1562 7.91248H10.9688V8.72498H10.1562V7.91248ZM3.85938 6.89685H3.04688V7.91248H2.03125V8.72498H3.04688V9.7406H3.85938V8.72498H4.875V7.91248H3.85938V6.89685Z" fill="#0071C5"/>
</g>
<defs>
<clipPath id="clip0_57_2110">
<rect width="13" height="13" fill="white" transform="translate(0 0.599976)"/>
</clipPath>
</defs>
</svg>
