<svg width="21" height="20" viewBox="0 0 21 20" fill="none" xmlns="http://www.w3.org/2000/svg">
<path d="M5.46402 11.8364L4.83432 14.1871L2.53279 14.2358C1.84498 12.96 1.45483 11.5004 1.45483 9.94932C1.45483 8.44942 1.81961 7.03499 2.46619 5.78955H2.46669L4.51569 6.16521L5.41328 8.20192C5.22542 8.74961 5.12302 9.33754 5.12302 9.94932C5.1231 10.6133 5.24337 11.2495 5.46402 11.8364Z" fill="#FBBB00"/>
<path d="M19.3873 8.25977C19.4912 8.80693 19.5454 9.372 19.5454 9.94951C19.5454 10.5971 19.4773 11.2288 19.3476 11.8381C18.9073 13.9115 17.7567 15.722 16.1629 17.0032L16.1624 17.0027L13.5816 16.8711L13.2163 14.5909C14.2739 13.9706 15.1004 13 15.5358 11.8381H10.6991V8.25977H15.6063H19.3873Z" fill="#518EF8"/>
<path d="M16.1622 17.0026L16.1627 17.0031C14.6126 18.249 12.6435 18.9945 10.5 18.9945C7.0554 18.9945 4.06058 17.0692 2.53284 14.2359L5.46406 11.8364C6.22791 13.875 8.19449 15.3263 10.5 15.3263C11.491 15.3263 12.4194 15.0584 13.216 14.5907L16.1622 17.0026Z" fill="#28B446"/>
<path d="M16.2734 2.98666L13.3432 5.3856C12.5187 4.87023 11.5441 4.57252 10.5 4.57252C8.14226 4.57252 6.1389 6.0903 5.41331 8.20202L2.46668 5.78966H2.46619C3.97157 2.88727 7.00416 0.904297 10.5 0.904297C12.6946 0.904297 14.7069 1.68606 16.2734 2.98666Z" fill="#F14336"/>
</svg>
