<svg width="31" height="31" viewBox="0 0 31 31" fill="none" xmlns="http://www.w3.org/2000/svg">
<circle cx="15.325" cy="15.875" r="15.125" fill="#0071C5"/>
<g clip-path="url(#clip0_1976_9478)">
<path d="M18.8563 9.26944C19.0549 9.07082 19.2907 8.91326 19.5503 8.80577C19.8098 8.69827 20.0879 8.64294 20.3688 8.64294C20.6497 8.64294 20.9279 8.69827 21.1874 8.80577C21.4469 8.91326 21.6827 9.07082 21.8813 9.26944C22.0799 9.46807 22.2375 9.70387 22.345 9.96338C22.4525 10.2229 22.5078 10.501 22.5078 10.7819C22.5078 11.0628 22.4525 11.341 22.345 11.6005C22.2375 11.86 22.0799 12.0958 21.8813 12.2944L11.6719 22.5038L7.51257 23.6382L8.64695 19.4788L18.8563 9.26944Z" stroke="white" stroke-width="1.3" stroke-linecap="round" stroke-linejoin="round"/>
</g>
<defs>
<clipPath id="clip0_1976_9478">
<rect width="18.15" height="18.15" fill="white" transform="translate(6.00006 7.00024)"/>
</clipPath>
</defs>
</svg>
