<svg width="24" height="24" viewBox="0 0 24 24" fill="none" xmlns="http://www.w3.org/2000/svg">
<path d="M15 14C15.5523 14 16 13.5523 16 13C16 12.4477 15.5523 12 15 12C14.4477 12 14 12.4477 14 13C14 13.5523 14.4477 14 15 14Z" fill="white"/>
<path d="M17 12C17.5523 12 18 11.5523 18 11C18 10.4477 17.5523 10 17 10C16.4477 10 16 10.4477 16 11C16 11.5523 16.4477 12 17 12Z" fill="white"/>
<path d="M10 9H8V11H6V13H8V15H10V13H12V11H10V9Z" fill="white"/>
<path d="M15 5H9C7.14348 5 5.36301 5.7375 4.05025 7.05025C2.7375 8.36301 2 10.1435 2 12C2 13.8565 2.7375 15.637 4.05025 16.9497C5.36301 18.2625 7.14348 19 9 19H15C16.8565 19 18.637 18.2625 19.9497 16.9497C21.2625 15.637 22 13.8565 22 12C22 10.1435 21.2625 8.36301 19.9497 7.05025C18.637 5.7375 16.8565 5 15 5ZM15 17H9C7.67392 17 6.40215 16.4732 5.46447 15.5355C4.52678 14.5979 4 13.3261 4 12C4 10.6739 4.52678 9.40215 5.46447 8.46447C6.40215 7.52678 7.67392 7 9 7H15C16.3261 7 17.5979 7.52678 18.5355 8.46447C19.4732 9.40215 20 10.6739 20 12C20 13.3261 19.4732 14.5979 18.5355 15.5355C17.5979 16.4732 16.3261 17 15 17Z" fill="white"/>
</svg>
