<svg width="13" height="14" viewBox="0 0 13 14" fill="none" xmlns="http://www.w3.org/2000/svg">
<g clip-path="url(#clip0_57_2104)">
<path d="M8.125 3.03751C8.34049 3.03751 8.54715 3.12311 8.69952 3.27548C8.8519 3.42786 8.9375 3.63452 8.9375 3.85001V10.35C8.9375 10.5655 8.8519 10.7722 8.69952 10.9245C8.54715 11.0769 8.34049 11.1625 8.125 11.1625H4.875C4.65951 11.1625 4.45285 11.0769 4.30048 10.9245C4.1481 10.7722 4.0625 10.5655 4.0625 10.35V3.85001C4.0625 3.63452 4.1481 3.42786 4.30048 3.27548C4.45285 3.12311 4.65951 3.03751 4.875 3.03751H8.125ZM4.875 2.22501C4.44402 2.22501 4.0307 2.39621 3.72595 2.70096C3.4212 3.0057 3.25 3.41903 3.25 3.85001V10.35C3.25 10.781 3.4212 11.1943 3.72595 11.4991C4.0307 11.8038 4.44402 11.975 4.875 11.975H8.125C8.55598 11.975 8.9693 11.8038 9.27405 11.4991C9.57879 11.1943 9.75 10.781 9.75 10.35V3.85001C9.75 3.41903 9.57879 3.0057 9.27405 2.70096C8.9693 2.39621 8.55598 2.22501 8.125 2.22501H4.875Z" fill="#0071C5"/>
<path d="M6.50001 10.35C6.7155 10.35 6.92216 10.2644 7.07453 10.112C7.2269 9.95967 7.31251 9.753 7.31251 9.53752C7.31251 9.32203 7.2269 9.11537 7.07453 8.96299C6.92216 8.81062 6.7155 8.72502 6.50001 8.72502C6.28452 8.72502 6.07786 8.81062 5.92548 8.96299C5.77311 9.11537 5.68751 9.32203 5.68751 9.53752C5.68751 9.753 5.77311 9.95967 5.92548 10.112C6.07786 10.2644 6.28452 10.35 6.50001 10.35ZM1.29919 3.89714C1.34636 3.9221 1.38815 3.95611 1.42218 3.99722C1.4562 4.03833 1.48179 4.08575 1.49749 4.13675C1.51318 4.18776 1.51867 4.24136 1.51365 4.29449C1.50862 4.34761 1.49317 4.39923 1.46819 4.44639C1.03614 5.26409 0.811017 6.17519 0.812507 7.10002C0.812507 8.05877 1.04976 8.96227 1.46819 9.75364C1.51862 9.84889 1.52914 9.96026 1.49745 10.0633C1.46575 10.1663 1.39444 10.2525 1.29919 10.3029C1.20395 10.3533 1.09257 10.3638 0.989568 10.3321C0.886564 10.3005 0.800368 10.2291 0.749944 10.1339C0.255963 9.19901 -0.00151738 8.15737 6.72702e-06 7.10002C6.72702e-06 6.00558 0.271382 4.97208 0.749944 4.06614C0.774902 4.01897 0.808909 3.97718 0.850023 3.94316C0.891136 3.90913 0.93855 3.88354 0.989556 3.86785C1.04056 3.85215 1.09416 3.84666 1.14729 3.85169C1.20042 3.85672 1.25204 3.87216 1.29919 3.89714ZM11.7008 3.89714C11.748 3.87216 11.7996 3.85672 11.8527 3.85169C11.9059 3.84666 11.9595 3.85215 12.0105 3.86785C12.0615 3.88354 12.1089 3.90913 12.15 3.94316C12.1911 3.97718 12.2251 4.01897 12.2501 4.06614C12.7441 5.001 13.0016 6.04265 13 7.10002C13.0016 8.15738 12.7441 9.19903 12.2501 10.1339C12.1996 10.2291 12.1134 10.3005 12.0104 10.3321C11.9074 10.3638 11.7961 10.3533 11.7008 10.3029C11.6056 10.2525 11.5343 10.1663 11.5026 10.0633C11.4709 9.96026 11.4814 9.84889 11.5318 9.75364C11.9639 8.93594 12.189 8.02484 12.1875 7.10002C12.1875 6.14127 11.9503 5.23777 11.5318 4.44639C11.5068 4.39923 11.4914 4.34761 11.4864 4.29449C11.4813 4.24136 11.4868 4.18776 11.5025 4.13675C11.5182 4.08575 11.5438 4.03833 11.5778 3.99722C11.6119 3.95611 11.6536 3.9221 11.7008 3.89714ZM2.48382 5.09639C2.53356 5.11579 2.57899 5.14479 2.61751 5.18176C2.65603 5.21872 2.68689 5.26292 2.70832 5.31181C2.72975 5.36071 2.74134 5.41335 2.74241 5.46673C2.74348 5.52011 2.73402 5.57317 2.71457 5.62289C2.53089 6.09368 2.43692 6.59467 2.43751 7.10002C2.43751 7.62164 2.53501 8.1197 2.71376 8.57714C2.73643 8.62735 2.74865 8.68166 2.74968 8.73674C2.75071 8.79183 2.74052 8.84655 2.71974 8.89757C2.69895 8.9486 2.66801 8.99486 2.62878 9.03355C2.58956 9.07224 2.54287 9.10255 2.49157 9.12263C2.44026 9.14271 2.38541 9.15214 2.33034 9.15036C2.27528 9.14857 2.22115 9.13561 2.17125 9.11225C2.12135 9.08889 2.07673 9.05562 2.04009 9.01447C2.00345 8.97332 1.97557 8.92515 1.95813 8.87289C1.73751 8.30788 1.62453 7.70658 1.62501 7.10002C1.62501 6.4752 1.74282 5.8772 1.95813 5.32714C1.99731 5.22688 2.07467 5.14627 2.17324 5.10301C2.2718 5.05974 2.3835 5.05736 2.48382 5.09639ZM10.5162 5.09639C10.5659 5.07694 10.619 5.06748 10.6724 5.06855C10.7257 5.06962 10.7784 5.08121 10.8273 5.10264C10.8762 5.12407 10.9204 5.15493 10.9573 5.19345C10.9943 5.23197 11.0233 5.2774 11.0427 5.32714C11.2572 5.8772 11.375 6.4752 11.375 7.10002C11.375 7.72483 11.2572 8.32283 11.0419 8.87289C10.999 8.96782 10.9213 9.04266 10.8249 9.08195C10.7284 9.12124 10.6205 9.12198 10.5236 9.08402C10.4266 9.04605 10.3479 8.97229 10.3037 8.87796C10.2595 8.78363 10.2533 8.67594 10.2863 8.57714C10.465 8.1197 10.5625 7.62164 10.5625 7.10002C10.5625 6.57839 10.465 6.08033 10.2863 5.62289C10.2469 5.52258 10.2491 5.41076 10.2922 5.31202C10.3353 5.21328 10.4159 5.13572 10.5162 5.09639Z" fill="#0071C5"/>
</g>
<defs>
<clipPath id="clip0_57_2104">
<rect width="13" height="13" fill="white" transform="translate(0 0.600006)"/>
</clipPath>
</defs>
</svg>
