<svg width="24" height="24" viewBox="0 0 24 24" fill="none" xmlns="http://www.w3.org/2000/svg">
<g clip-path="url(#clip0_47_3040)">
<path d="M15 4.5C15.3978 4.5 15.7794 4.65804 16.0607 4.93934C16.342 5.22064 16.5 5.60218 16.5 6V18C16.5 18.3978 16.342 18.7794 16.0607 19.0607C15.7794 19.342 15.3978 19.5 15 19.5H9C8.60218 19.5 8.22064 19.342 7.93934 19.0607C7.65804 18.7794 7.5 18.3978 7.5 18V6C7.5 5.60218 7.65804 5.22064 7.93934 4.93934C8.22064 4.65804 8.60218 4.5 9 4.5H15ZM9 3C8.20435 3 7.44129 3.31607 6.87868 3.87868C6.31607 4.44129 6 5.20435 6 6V18C6 18.7956 6.31607 19.5587 6.87868 20.1213C7.44129 20.6839 8.20435 21 9 21H15C15.7956 21 16.5587 20.6839 17.1213 20.1213C17.6839 19.5587 18 18.7956 18 18V6C18 5.20435 17.6839 4.44129 17.1213 3.87868C16.5587 3.31607 15.7956 3 15 3H9Z" fill="white"/>
<path d="M12 18.0002C12.3978 18.0002 12.7794 17.8422 13.0607 17.5609C13.342 17.2796 13.5 16.8981 13.5 16.5002C13.5 16.1024 13.342 15.7209 13.0607 15.4396C12.7794 15.1583 12.3978 15.0002 12 15.0002C11.6022 15.0002 11.2207 15.1583 10.9394 15.4396C10.658 15.7209 10.5 16.1024 10.5 16.5002C10.5 16.8981 10.658 17.2796 10.9394 17.5609C11.2207 17.8422 11.6022 18.0002 12 18.0002ZM2.39851 6.08724C2.4856 6.13332 2.56275 6.1961 2.62556 6.272C2.68837 6.3479 2.73562 6.43544 2.76459 6.5296C2.79356 6.62377 2.8037 6.72272 2.79442 6.8208C2.78514 6.91889 2.75663 7.01418 2.71051 7.10124C1.91288 8.61084 1.49726 10.2929 1.50001 12.0002C1.50001 13.7702 1.93801 15.4382 2.71051 16.8992C2.8036 17.0751 2.82303 17.2807 2.76452 17.4709C2.70601 17.661 2.57435 17.8202 2.39851 17.9132C2.22267 18.0063 2.01706 18.0258 1.82689 17.9672C1.63673 17.9087 1.4776 17.7771 1.38451 17.6012C0.472548 15.8753 -0.00280132 13.9523 1.24191e-05 12.0002C1.24191e-05 9.97974 0.501012 8.07174 1.38451 6.39924C1.43059 6.31216 1.49337 6.23501 1.56927 6.17219C1.64517 6.10938 1.73271 6.06214 1.82687 6.03317C1.92104 6.00419 2.01999 5.99405 2.11807 6.00333C2.21616 6.01261 2.31145 6.04113 2.39851 6.08724ZM21.6015 6.08724C21.6886 6.04113 21.7839 6.01261 21.882 6.00333C21.98 5.99405 22.079 6.00419 22.1732 6.03317C22.2673 6.06214 22.3549 6.10938 22.4308 6.17219C22.5067 6.23501 22.5694 6.31216 22.6155 6.39924C23.5275 8.12515 24.0029 10.0482 24 12.0002C24.0029 13.9523 23.5275 15.8753 22.6155 17.6012C22.5224 17.7771 22.3633 17.9087 22.1731 17.9672C21.983 18.0258 21.7774 18.0063 21.6015 17.9132C21.4257 17.8202 21.294 17.661 21.2355 17.4709C21.177 17.2807 21.1964 17.0751 21.2895 16.8992C22.0871 15.3896 22.5028 13.7076 22.5 12.0002C22.5 10.2302 22.062 8.56224 21.2895 7.10124C21.2434 7.01418 21.2149 6.91889 21.2056 6.8208C21.1963 6.72272 21.2065 6.62377 21.2354 6.5296C21.2644 6.43544 21.3117 6.3479 21.3745 6.272C21.4373 6.1961 21.5144 6.13332 21.6015 6.08724ZM4.58551 8.30124C4.67734 8.33705 4.76121 8.3906 4.83233 8.45884C4.90345 8.52708 4.96042 8.60867 4.99998 8.69895C5.03954 8.78922 5.06093 8.8864 5.06291 8.98495C5.06488 9.08349 5.04742 9.18146 5.01151 9.27324C4.67242 10.1424 4.49893 11.0673 4.50001 12.0002C4.50001 12.9632 4.68001 13.8827 5.01001 14.7272C5.05187 14.8199 5.07443 14.9202 5.07633 15.0219C5.07823 15.1236 5.05942 15.2246 5.02105 15.3188C4.98268 15.413 4.92555 15.4984 4.85314 15.5698C4.78072 15.6413 4.69454 15.6972 4.59982 15.7343C4.5051 15.7714 4.40383 15.7888 4.30217 15.7855C4.20051 15.7822 4.10058 15.7583 4.00846 15.7151C3.91634 15.672 3.83396 15.6106 3.76632 15.5346C3.69868 15.4587 3.6472 15.3697 3.61501 15.2732C3.20771 14.2301 2.99913 13.12 3.00001 12.0002C3.00001 10.8467 3.21751 9.74274 3.61501 8.72724C3.68734 8.54215 3.83016 8.39333 4.01213 8.31345C4.19409 8.23358 4.40031 8.22919 4.58551 8.30124ZM19.4145 8.30124C19.5063 8.26533 19.6043 8.24787 19.7028 8.24985C19.8014 8.25183 19.8985 8.27321 19.9888 8.31278C20.0791 8.35234 20.1607 8.40931 20.2289 8.48043C20.2972 8.55154 20.3507 8.63541 20.3865 8.72724C20.7825 9.74274 21 10.8467 21 12.0002C21 13.1537 20.7825 14.2577 20.385 15.2732C20.3059 15.4485 20.1625 15.5867 19.9844 15.6592C19.8063 15.7317 19.6072 15.7331 19.4281 15.663C19.249 15.5929 19.1037 15.4567 19.0222 15.2826C18.9407 15.1085 18.9292 14.9096 18.99 14.7272C19.32 13.8827 19.5 12.9632 19.5 12.0002C19.5 11.0372 19.32 10.1177 18.99 9.27324C18.9174 9.08806 18.9213 8.88161 19.001 8.69933C19.0806 8.51704 19.2293 8.37385 19.4145 8.30124Z" fill="white"/>
</g>
<defs>
<clipPath id="clip0_47_3040">
<rect width="24" height="24" fill="white"/>
</clipPath>
</defs>
</svg>
