<svg width="24" height="24" viewBox="0 0 24 24" fill="none" xmlns="http://www.w3.org/2000/svg">
<path d="M7.1999 16.1998C7.1999 16.0407 7.26312 15.8881 7.37564 15.7755C7.48816 15.663 7.64077 15.5998 7.7999 15.5998H8.9999C9.15903 15.5998 9.31164 15.663 9.42417 15.7755C9.53669 15.8881 9.5999 16.0407 9.5999 16.1998C9.5999 16.3589 9.53669 16.5115 9.42417 16.6241C9.31164 16.7366 9.15903 16.7998 8.9999 16.7998H7.7999C7.64077 16.7998 7.48816 16.7366 7.37564 16.6241C7.26312 16.5115 7.1999 16.3589 7.1999 16.1998ZM14.9999 15.5998C14.8408 15.5998 14.6882 15.663 14.5756 15.7755C14.4631 15.8881 14.3999 16.0407 14.3999 16.1998C14.3999 16.3589 14.4631 16.5115 14.5756 16.6241C14.6882 16.7366 14.8408 16.7998 14.9999 16.7998H16.1999C16.359 16.7998 16.5116 16.7366 16.6242 16.6241C16.7367 16.5115 16.7999 16.3589 16.7999 16.1998C16.7999 16.0407 16.7367 15.8881 16.6242 15.7755C16.5116 15.663 16.359 15.5998 16.1999 15.5998H14.9999ZM4.7999 4.7998H19.1999C19.8364 4.7998 20.4469 5.05266 20.897 5.50275C21.347 5.95284 21.5999 6.56329 21.5999 7.1998V16.7998C21.5999 17.4363 21.347 18.0468 20.897 18.4969C20.4469 18.9469 19.8364 19.1998 19.1999 19.1998H4.7999C4.16338 19.1998 3.55293 18.9469 3.10285 18.4969C2.65276 18.0468 2.3999 17.4363 2.3999 16.7998V7.1998C2.3999 6.56329 2.65276 5.95284 3.10285 5.50275C3.55293 5.05266 4.16338 4.7998 4.7999 4.7998ZM11.3999 5.9998H4.7999C4.48164 5.9998 4.17642 6.12623 3.95137 6.35128C3.72633 6.57632 3.5999 6.88155 3.5999 7.1998V16.7998C3.5999 17.1181 3.72633 17.4233 3.95137 17.6483C4.17642 17.8734 4.48164 17.9998 4.7999 17.9998H11.3999V5.9998ZM12.5999 17.9998H19.1999C19.5182 17.9998 19.8234 17.8734 20.0484 17.6483C20.2735 17.4233 20.3999 17.1181 20.3999 16.7998V7.1998C20.3999 6.88155 20.2735 6.57632 20.0484 6.35128C19.8234 6.12623 19.5182 5.9998 19.1999 5.9998H12.5999V17.9998Z" fill="white"/>
</svg>
