<svg width="13" height="14" viewBox="0 0 13 14" fill="none" xmlns="http://www.w3.org/2000/svg">
<path d="M3.89999 9.37498C3.89999 9.28879 3.93423 9.20612 3.99518 9.14517C4.05613 9.08422 4.13879 9.04998 4.22499 9.04998H4.87499C4.96118 9.04998 5.04385 9.08422 5.1048 9.14517C5.16575 9.20612 5.19999 9.28879 5.19999 9.37498C5.19999 9.46118 5.16575 9.54384 5.1048 9.60479C5.04385 9.66574 4.96118 9.69998 4.87499 9.69998H4.22499C4.13879 9.69998 4.05613 9.66574 3.99518 9.60479C3.93423 9.54384 3.89999 9.46118 3.89999 9.37498ZM8.12499 9.04998C8.03879 9.04998 7.95613 9.08422 7.89518 9.14517C7.83423 9.20612 7.79999 9.28879 7.79999 9.37498C7.79999 9.46118 7.83423 9.54384 7.89518 9.60479C7.95613 9.66574 8.03879 9.69998 8.12499 9.69998H8.77499C8.86118 9.69998 8.94385 9.66574 9.0048 9.60479C9.06575 9.54384 9.09999 9.46118 9.09999 9.37498C9.09999 9.28879 9.06575 9.20612 9.0048 9.14517C8.94385 9.08422 8.86118 9.04998 8.77499 9.04998H8.12499ZM2.59999 3.19998H10.4C10.7448 3.19998 11.0754 3.33695 11.3192 3.58074C11.563 3.82454 11.7 4.1552 11.7 4.49998V9.69998C11.7 10.0448 11.563 10.3754 11.3192 10.6192C11.0754 10.863 10.7448 11 10.4 11H2.59999C2.25521 11 1.92455 10.863 1.68075 10.6192C1.43695 10.3754 1.29999 10.0448 1.29999 9.69998V4.49998C1.29999 4.1552 1.43695 3.82454 1.68075 3.58074C1.92455 3.33695 2.25521 3.19998 2.59999 3.19998ZM6.17499 3.84998H2.59999C2.4276 3.84998 2.26227 3.91846 2.14037 4.04036C2.01847 4.16226 1.94999 4.32759 1.94999 4.49998V9.69998C1.94999 9.87237 2.01847 10.0377 2.14037 10.1596C2.26227 10.2815 2.4276 10.35 2.59999 10.35H6.17499V3.84998ZM6.82499 10.35H10.4C10.5724 10.35 10.7377 10.2815 10.8596 10.1596C10.9815 10.0377 11.05 9.87237 11.05 9.69998V4.49998C11.05 4.32759 10.9815 4.16226 10.8596 4.04036C10.7377 3.91846 10.5724 3.84998 10.4 3.84998H6.82499V10.35Z" fill="#0071C5"/>
</svg>
