<svg width="24" height="24" viewBox="0 0 24 24" fill="none" xmlns="http://www.w3.org/2000/svg">
<g opacity="0.6">
<g clip-path="url(#clip0_45_2768)">
<g clip-path="url(#clip1_45_2768)">
<path d="M12.8734 3.44668L15.8 6.46668L13.4067 8.94001L14.9 10.4667L17.6267 7.65335C17.9346 7.33506 18.1068 6.90954 18.1068 6.46668C18.1068 6.02382 17.9346 5.5983 17.6267 5.28001L13.6267 1.18668C13.3943 0.942853 13.0936 0.774861 12.7642 0.704682C12.4347 0.634504 12.0917 0.665406 11.78 0.793347C11.4652 0.918757 11.1953 1.13574 11.0051 1.41623C10.815 1.69671 10.7133 2.02781 10.7134 2.36668V9.03335L12.8534 11.1733L12.8734 3.44668Z" fill="#292929"/>
<path d="M3.00006 3.33325L2.06006 4.27992L10.1134 12.3399L5.80006 16.7933C5.65497 16.9439 5.55736 17.1338 5.51937 17.3395C5.48138 17.5451 5.50468 17.7574 5.58637 17.9499C5.66807 18.1424 5.80456 18.3067 5.97886 18.4223C6.15316 18.5378 6.35759 18.5996 6.56673 18.5999C6.71007 18.6009 6.85209 18.5724 6.98397 18.5162C7.11585 18.46 7.23478 18.3773 7.33339 18.2733L10.7401 14.7599V21.6333C10.74 21.9721 10.8416 22.3032 11.0318 22.5837C11.222 22.8642 11.4919 23.0812 11.8067 23.2066C12.0072 23.2907 12.2226 23.3338 12.4401 23.3333C12.6663 23.3327 12.8901 23.287 13.0985 23.1989C13.3068 23.1108 13.4955 22.9819 13.6534 22.8199L17.0667 19.2933L19.3934 21.6133L20.3334 20.6666L3.00006 3.33325ZM13.2067 20.5533V15.0999L15.8734 17.7666L13.2067 20.5533Z" fill="#292929"/>
</g>
</g>
</g>
<defs>
<clipPath id="clip0_45_2768">
<rect width="24" height="24" fill="white"/>
</clipPath>
<clipPath id="clip1_45_2768">
<rect width="24" height="24" fill="white"/>
</clipPath>
</defs>
</svg>
