<svg width="13" height="13" viewBox="0 0 13 13" fill="none" xmlns="http://www.w3.org/2000/svg">
<path d="M4.33331 9.20833L6.49998 11.375L8.66665 9.20833" stroke="white" stroke-width="0.541667" stroke-linecap="round" stroke-linejoin="round"/>
<path d="M6.5 6.5V11.375" stroke="white" stroke-width="0.541667" stroke-linecap="round" stroke-linejoin="round"/>
<path d="M11.31 9.79874C11.7809 9.46759 12.1341 8.99499 12.3182 8.44953C12.5023 7.90407 12.5078 7.31413 12.334 6.76532C12.1601 6.2165 11.8158 5.73738 11.3512 5.39746C10.8866 5.05755 10.3257 4.87454 9.74999 4.87499H9.06749C8.90458 4.24009 8.59976 3.65042 8.17597 3.15037C7.75219 2.65032 7.22049 2.25293 6.6209 1.9881C6.02131 1.72328 5.36945 1.59793 4.7144 1.62148C4.05936 1.64504 3.41819 1.81689 2.83917 2.1241C2.26015 2.43131 1.75837 2.86587 1.3716 3.39507C0.984826 3.92427 0.723147 4.53431 0.606261 5.17928C0.489374 5.82424 0.520325 6.48732 0.696783 7.11859C0.873242 7.74986 1.19061 8.33288 1.62499 8.82374" stroke="white" stroke-width="0.541667" stroke-linecap="round" stroke-linejoin="round"/>
</svg>
