<svg width="33" height="33" viewBox="0 0 33 33" fill="none" xmlns="http://www.w3.org/2000/svg">
<path d="M11 23.375L16.5 28.875L22 23.375" stroke="#0071C5" stroke-width="0.541667" stroke-linecap="round" stroke-linejoin="round"/>
<path d="M16.5 16.5V28.875" stroke="#0071C5" stroke-width="0.541667" stroke-linecap="round" stroke-linejoin="round"/>
<path d="M28.71 24.8737C29.9054 24.0331 30.8019 22.8335 31.2693 21.4488C31.7367 20.0642 31.7507 18.5666 31.3093 17.1735C30.8679 15.7804 29.9941 14.5641 28.8146 13.7013C27.6351 12.8384 26.2114 12.3739 24.75 12.375H23.0175C22.604 10.7633 21.8302 9.26646 20.7544 7.99711C19.6787 6.72775 18.329 5.71898 16.8069 5.04674C15.2849 4.37449 13.6302 4.05629 11.9673 4.11608C10.3045 4.17588 8.67695 4.61212 7.20713 5.39196C5.73732 6.1718 4.46356 7.27492 3.48176 8.61826C2.49996 9.96161 1.8357 11.5102 1.53898 13.1474C1.24227 14.7846 1.32084 16.4678 1.76877 18.0703C2.2167 19.6727 3.02233 21.1527 4.125 22.3987" stroke="#0071C5" stroke-width="0.541667" stroke-linecap="round" stroke-linejoin="round"/>
</svg>
