<svg width="19" height="19" viewBox="0 0 19 19" fill="none" xmlns="http://www.w3.org/2000/svg">
<path d="M9.4852 2.84505C9.98832 2.84505 10.4708 3.04491 10.8266 3.40067C11.1823 3.75643 11.3822 4.23893 11.3822 4.74205C11.3822 5.24517 11.1823 5.72768 10.8266 6.08343C10.4708 6.43919 9.98832 6.63905 9.4852 6.63905C8.98209 6.63905 8.49958 6.43919 8.14382 6.08343C7.78807 5.72768 7.5882 5.24517 7.5882 4.74205C7.5882 4.23893 7.78807 3.75643 8.14382 3.40067C8.49958 3.04491 8.98209 2.84505 9.4852 2.84505ZM9.95945 7.54866C10.663 7.42975 11.2961 7.05089 11.7335 6.48716C12.1708 5.92344 12.3804 5.21598 12.3207 4.505C12.2611 3.79402 11.9365 3.1314 11.4113 2.64845C10.8861 2.1655 10.1987 1.89746 9.4852 1.89746C8.77172 1.89746 8.08428 2.1655 7.5591 2.64845C7.03392 3.1314 6.70934 3.79402 6.64967 4.505C6.59 5.21598 6.79961 5.92344 7.23695 6.48716C7.67429 7.05089 8.30745 7.42975 9.01095 7.54866V10.4331H7.11395C6.73662 10.4331 6.37473 10.5829 6.10792 10.8498C5.8411 11.1166 5.6912 11.4785 5.6912 11.8558V12.3301H4.7427C4.23959 12.3301 3.75708 12.5299 3.40132 12.8857C3.04556 13.2414 2.8457 13.7239 2.8457 14.2271V16.5983C2.8457 16.7241 2.89567 16.8447 2.98461 16.9336C3.07355 17.0226 3.19417 17.0726 3.31995 17.0726H15.6505C15.7762 17.0726 15.8969 17.0226 15.9858 16.9336C16.0747 16.8447 16.1247 16.7241 16.1247 16.5983V14.2271C16.1247 13.7239 15.9248 13.2414 15.5691 12.8857C15.2133 12.5299 14.7308 12.3301 14.2277 12.3301H13.2792V11.8558C13.2792 11.4785 13.1293 11.1166 12.8625 10.8498C12.5957 10.5829 12.2338 10.4331 11.8565 10.4331H9.95945V7.54866ZM7.11395 11.3816H11.8565C11.9822 11.3816 12.1029 11.4315 12.1918 11.5205C12.2807 11.6094 12.3307 11.73 12.3307 11.8558V12.3301H6.6397V11.8558C6.6397 11.73 6.68967 11.6094 6.77861 11.5205C6.86755 11.4315 6.98817 11.3816 7.11395 11.3816ZM4.7427 13.2786H14.2277C14.4793 13.2786 14.7205 13.3785 14.8984 13.5564C15.0763 13.7342 15.1762 13.9755 15.1762 14.2271V16.1241H3.7942V14.2271C3.7942 13.9755 3.89413 13.7342 4.07201 13.5564C4.24989 13.3785 4.49115 13.2786 4.7427 13.2786Z" fill="white"/>
</svg>
