<svg width="31" height="30" viewBox="0 0 31 30" fill="none" xmlns="http://www.w3.org/2000/svg">
<g clip-path="url(#clip0_1043_2684)">
<path d="M23.8423 19.1068C23.8423 19.4858 23.6917 19.8493 23.4237 20.1174C23.1557 20.3854 22.7922 20.536 22.4131 20.536H9.55057C9.17153 20.536 8.80802 20.3854 8.53999 20.1174C8.27197 19.8493 8.1214 19.4858 8.1214 19.1068V11.2463C8.1214 10.8673 8.27197 10.5038 8.53999 10.2358C8.80802 9.96773 9.17153 9.81716 9.55057 9.81716H12.4089L13.8381 7.6734H18.1256L19.5548 9.81716H22.4131C22.7922 9.81716 23.1557 9.96773 23.4237 10.2358C23.6917 10.5038 23.8423 10.8673 23.8423 11.2463V19.1068Z" stroke="#0071C5" stroke-width="1.42917" stroke-linecap="round" stroke-linejoin="round"/>
<path d="M15.9818 17.6775C17.5604 17.6775 18.8402 16.3978 18.8402 14.8192C18.8402 13.2405 17.5604 11.9608 15.9818 11.9608C14.4032 11.9608 13.1235 13.2405 13.1235 14.8192C13.1235 16.3978 14.4032 17.6775 15.9818 17.6775Z" stroke="#0071C5" stroke-width="1.42917" stroke-linecap="round" stroke-linejoin="round"/>
</g>
<path d="M16.2453 2.52482C16.1057 2.66435 16.1057 2.89058 16.2453 3.03011L18.5191 5.30391C18.6586 5.44344 18.8848 5.44344 19.0244 5.30391C19.1639 5.16438 19.1639 4.93815 19.0244 4.79862L17.0032 2.77747L19.0244 0.75631C19.1639 0.616778 19.1639 0.390552 19.0244 0.25102C18.8848 0.111489 18.6586 0.111489 18.5191 0.25102L16.2453 2.52482ZM30.7869 14.8811C30.4226 11.9669 29.2734 8.85195 26.9929 6.46108C24.7046 4.062 21.3033 2.42017 16.4979 2.42017V3.13476C21.1251 3.13476 24.3338 4.70857 26.4758 6.9543C28.6258 9.20825 29.7275 12.1673 30.0778 14.9698L30.7869 14.8811Z" fill="#0071C5"/>
<path d="M15.3739 26.9556C15.5134 26.8161 15.5134 26.5899 15.3739 26.4504L13.1001 24.1766C12.9605 24.037 12.7343 24.037 12.5948 24.1766C12.4552 24.3161 12.4552 24.5423 12.5948 24.6818L14.6159 26.703L12.5948 28.7242C12.4552 28.8637 12.4552 29.0899 12.5948 29.2294C12.7343 29.369 12.9605 29.369 13.1001 29.2294L15.3739 26.9556ZM0.832241 14.5993C1.19652 17.5136 2.34571 20.6285 4.62622 23.0194C6.91458 25.4185 10.3159 27.0603 15.1212 27.0603V26.3457C10.494 26.3457 7.28538 24.7719 5.1433 22.5262C2.99338 20.2722 1.89162 17.3132 1.54131 14.5107L0.832241 14.5993Z" fill="#0071C5"/>
<defs>
<clipPath id="clip0_1043_2684">
<rect width="17.1501" height="17.1501" fill="white" transform="translate(7.40723 5.52972)"/>
</clipPath>
</defs>
</svg>
