<svg width="27" height="25" viewBox="0 0 27 25" fill="none" xmlns="http://www.w3.org/2000/svg">
<g clip-path="url(#clip0_228_2933)">
<path d="M20.2365 16.2473C20.2365 16.5692 20.1086 16.8778 19.8811 17.1054C19.6535 17.333 19.3449 17.4608 19.023 17.4608H8.10167C7.77983 17.4608 7.47118 17.333 7.2436 17.1054C7.01603 16.8778 6.88818 16.5692 6.88818 16.2473V9.57317C6.88818 9.25133 7.01603 8.94268 7.2436 8.7151C7.47118 8.48753 7.77983 8.35968 8.10167 8.35968H10.5286L11.7421 6.53946H15.3826L16.596 8.35968H19.023C19.3449 8.35968 19.6535 8.48753 19.8811 8.7151C20.1086 8.94268 20.2365 9.25133 20.2365 9.57317V16.2473Z" stroke="white" stroke-width="1.21348" stroke-linecap="round" stroke-linejoin="round"/>
<path d="M13.5622 15.0338C14.9026 15.0338 15.9892 13.9472 15.9892 12.6069C15.9892 11.2665 14.9026 10.1799 13.5622 10.1799C12.2218 10.1799 11.1353 11.2665 11.1353 12.6069C11.1353 13.9472 12.2218 15.0338 13.5622 15.0338Z" stroke="white" stroke-width="1.21348" stroke-linecap="round" stroke-linejoin="round"/>
</g>
<path d="M13.786 2.16787C13.6675 2.28634 13.6675 2.47843 13.786 2.5969L15.7166 4.52754C15.8351 4.64601 16.0272 4.64601 16.1456 4.52754C16.2641 4.40907 16.2641 4.21698 16.1456 4.09851L14.4295 2.38239L16.1456 0.666261C16.2641 0.547787 16.2641 0.355704 16.1456 0.23723C16.0272 0.118756 15.8351 0.118756 15.7166 0.23723L13.786 2.16787ZM26.133 12.6594C25.8237 10.185 24.8479 7.54011 22.9116 5.51007C20.9686 3.47306 18.0806 2.07901 14.0005 2.07901V2.68576C17.9293 2.68576 20.6537 4.02205 22.4725 5.92885C24.298 7.84264 25.2335 10.3551 25.5309 12.7346L26.133 12.6594Z" fill="white"/>
<path d="M13.0461 22.9116C13.1645 22.7931 13.1645 22.601 13.0461 22.4826L11.1154 20.5519C10.9969 20.4335 10.8049 20.4335 10.6864 20.5519C10.5679 20.6704 10.5679 20.8625 10.6864 20.981L12.4025 22.6971L10.6864 24.4132C10.5679 24.5317 10.5679 24.7238 10.6864 24.8422C10.8049 24.9607 10.9969 24.9607 11.1154 24.8422L13.0461 22.9116ZM0.699054 12.4201C1.00836 14.8945 1.98411 17.5394 3.92045 19.5694C5.86345 21.6064 8.75141 23.0005 12.8315 23.0005V22.3937C8.90269 22.3937 6.17829 21.0574 4.35949 19.1506C2.53403 17.2368 1.59855 14.7244 1.30111 12.3448L0.699054 12.4201Z" fill="white"/>
<defs>
<clipPath id="clip0_228_2933">
<rect width="14.5618" height="14.5618" fill="white" transform="translate(6.28174 4.7193)"/>
</clipPath>
</defs>
</svg>
