<svg width="24" height="24" viewBox="0 0 24 24" fill="none" xmlns="http://www.w3.org/2000/svg">
<path d="M20.5498 15.0196C20.469 14.9692 20.3767 14.9402 20.2816 14.9353C20.1865 14.9304 20.0917 14.9497 20.0061 14.9914C19.731 15.1229 19.4297 15.1902 19.1248 15.1883C18.8439 15.1883 18.566 15.1309 18.3081 15.0197C18.0501 14.9085 17.8176 14.7457 17.6248 14.5414C17.4317 14.3348 17.2824 14.0912 17.1857 13.8254C17.0891 13.5596 17.0471 13.277 17.0623 12.9946C17.0855 12.659 17.1901 12.3341 17.367 12.0479C17.5438 11.7618 17.7877 11.5231 18.0776 11.3523C18.3674 11.1815 18.6944 11.0839 19.0304 11.0679C19.3664 11.0518 19.7013 11.1178 20.0061 11.2602C20.0917 11.3019 20.1865 11.3212 20.2816 11.3163C20.3767 11.3114 20.469 11.2824 20.5498 11.2321C20.6299 11.1805 20.6959 11.1098 20.7418 11.0263C20.7876 10.9428 20.8119 10.8492 20.8123 10.7539V6.75081C20.8123 6.40271 20.674 6.06887 20.4279 5.82273C20.1818 5.57659 19.8479 5.43831 19.4998 5.43831H15.8905C15.92 5.25223 15.9357 5.06421 15.9373 4.87581C15.9362 4.44055 15.8467 4.01006 15.6743 3.61041C15.5018 3.21076 15.2501 2.85028 14.9342 2.55081C14.4954 2.1382 13.9486 1.85838 13.3572 1.74377C12.7659 1.62917 12.1542 1.68447 11.593 1.90326C11.0318 2.12205 10.544 2.49538 10.1863 2.98C9.82857 3.46461 9.61547 4.04067 9.5717 4.64143C9.55118 4.90758 9.56377 5.17526 9.60921 5.43831H5.99983C5.65173 5.43831 5.31789 5.57659 5.07175 5.82273C4.82561 6.06887 4.68733 6.40271 4.68733 6.75081V9.98518C4.50125 9.95562 4.31323 9.93995 4.12483 9.93831C3.68957 9.93945 3.25908 10.029 2.85943 10.2014C2.45979 10.3738 2.09931 10.6256 1.79983 10.9414C1.38722 11.3803 1.1074 11.927 0.992798 12.5184C0.878192 13.1097 0.933489 13.7215 1.15228 14.2827C1.37107 14.8439 1.74441 15.3316 2.22902 15.6893C2.71364 16.0471 3.2897 16.2602 3.89045 16.3039C4.15661 16.3245 4.42428 16.3119 4.68733 16.2664V19.5008C4.68733 19.8489 4.82561 20.1827 5.07175 20.4289C5.31789 20.675 5.65173 20.8133 5.99983 20.8133H19.4998C19.8479 20.8133 20.1818 20.675 20.4279 20.4289C20.674 20.1827 20.8123 19.8489 20.8123 19.5008V15.4977C20.8119 15.4024 20.7876 15.3088 20.7418 15.2253C20.6959 15.1418 20.6299 15.0711 20.5498 15.0196ZM19.6873 19.5008C19.6873 19.5505 19.6676 19.5982 19.6324 19.6334C19.5972 19.6686 19.5496 19.6883 19.4998 19.6883H5.99983C5.9501 19.6883 5.90241 19.6686 5.86725 19.6334C5.83208 19.5982 5.81233 19.5505 5.81233 19.5008V15.4977C5.81186 15.4024 5.7876 15.3088 5.74176 15.2253C5.69591 15.1418 5.62994 15.0711 5.54983 15.0196C5.45937 14.9646 5.35565 14.9355 5.24983 14.9352C5.16531 14.9347 5.08185 14.954 5.00608 14.9914C4.7013 15.1338 4.36644 15.1998 4.03043 15.1837C3.69442 15.1677 3.36738 15.0701 3.07755 14.8993C2.78772 14.7286 2.54383 14.4898 2.36695 14.2037C2.19007 13.9175 2.08552 13.5926 2.06233 13.2571C2.04709 12.9746 2.08905 12.692 2.18571 12.4262C2.28237 12.1604 2.43173 11.9169 2.62483 11.7102C2.81763 11.5059 3.05012 11.3431 3.30806 11.2319C3.56599 11.1207 3.84393 11.0633 4.12483 11.0633C4.42969 11.0614 4.731 11.1288 5.00608 11.2602C5.09168 11.3019 5.18648 11.3212 5.28158 11.3163C5.37669 11.3114 5.46899 11.2824 5.54983 11.2321C5.62994 11.1805 5.69591 11.1098 5.74176 11.0263C5.7876 10.9428 5.81186 10.8492 5.81233 10.7539V6.75081C5.81233 6.70108 5.83208 6.65339 5.86725 6.61822C5.90241 6.58306 5.9501 6.56331 5.99983 6.56331H10.378C10.4732 6.56283 10.5668 6.53857 10.6503 6.49273C10.7338 6.44689 10.8046 6.38092 10.8561 6.30081C10.9064 6.21996 10.9354 6.12767 10.9403 6.03256C10.9452 5.93746 10.9259 5.84266 10.8842 5.75706C10.7418 5.45227 10.6758 5.11741 10.6919 4.78141C10.7079 4.4454 10.8056 4.11836 10.9763 3.82853C11.1471 3.5387 11.3858 3.29481 11.672 3.11793C11.9581 2.94105 12.283 2.8365 12.6186 2.81331C12.901 2.79806 13.1836 2.84003 13.4494 2.93669C13.7152 3.03335 13.9588 3.18271 14.1655 3.37581C14.3697 3.5686 14.5325 3.8011 14.6437 4.05903C14.755 4.31697 14.8123 4.59491 14.8123 4.87581C14.8142 5.18067 14.7469 5.48198 14.6155 5.75706C14.5737 5.84266 14.5544 5.93746 14.5593 6.03256C14.5643 6.12767 14.5932 6.21996 14.6436 6.30081C14.6951 6.38092 14.7658 6.44689 14.8493 6.49273C14.9328 6.53857 15.0265 6.56283 15.1217 6.56331H19.4998C19.5496 6.56331 19.5972 6.58306 19.6324 6.61822C19.6676 6.65339 19.6873 6.70108 19.6873 6.75081V9.98518C19.4243 9.93975 19.1566 9.92715 18.8905 9.94768C18.0695 10.0107 17.3048 10.389 16.7565 11.0033C16.2082 11.6176 15.9189 12.4203 15.9492 13.2431C15.9795 14.0659 16.327 14.8451 16.919 15.4174C17.511 15.9898 18.3014 16.3108 19.1248 16.3133C19.3132 16.3117 19.5013 16.296 19.6873 16.2664V19.5008Z" fill="#0071C5"/>
</svg>
