<svg width="13" height="13" viewBox="0 0 13 13" fill="none" xmlns="http://www.w3.org/2000/svg">
<path d="M8.79169 2.37497C8.91207 2.25459 9.05498 2.1591 9.21226 2.09395C9.36954 2.0288 9.53811 1.99527 9.70835 1.99527C9.87859 1.99527 10.0472 2.0288 10.2045 2.09395C10.3617 2.1591 10.5046 2.25459 10.625 2.37497C10.7454 2.49534 10.8409 2.63825 10.906 2.79554C10.9712 2.95282 11.0047 3.12139 11.0047 3.29163C11.0047 3.46187 10.9712 3.63045 10.906 3.78773C10.8409 3.94501 10.7454 4.08792 10.625 4.2083L4.43752 10.3958L1.91669 11.0833L2.60419 8.56247L8.79169 2.37497Z" stroke="white" stroke-width="0.6875" stroke-linecap="round" stroke-linejoin="round"/>
</svg>
