<svg width="31" height="30" viewBox="0 0 31 30" fill="none" xmlns="http://www.w3.org/2000/svg">
<path fill-rule="evenodd" clip-rule="evenodd" d="M18.3453 5.41049C17.5325 5.41049 16.98 4.50195 16.98 3.68918C16.98 1.65206 15.3286 0.000656128 13.2915 0.000656128C11.2543 0.000656128 9.60293 1.65206 9.60293 3.68918C9.60293 4.50195 9.05038 5.41049 8.23761 5.41049H3.03635C1.90955 5.41049 0.996094 6.32394 0.996094 7.45074V27.9604C0.996094 29.0872 1.90955 30.0006 3.03635 30.0006H8.23761C9.05039 30.0006 9.60293 29.0921 9.60293 28.2793C9.60293 26.2422 11.2543 24.5908 13.2915 24.5908C15.3286 24.5908 16.98 26.2422 16.98 28.2793C16.98 29.0921 17.5325 30.0006 18.3453 30.0006H23.546C24.6728 30.0006 25.5863 29.0872 25.5863 27.9604V22.7596C25.5863 21.9467 26.495 21.3941 27.3079 21.3941C29.345 21.3941 30.9964 19.7427 30.9964 17.7056C30.9964 15.6685 29.345 14.017 27.3079 14.017C26.495 14.017 25.5863 13.4644 25.5863 12.6515V7.45074C25.5863 6.32394 24.6728 5.41049 23.546 5.41049L18.3453 5.41049ZM8.36957 18.3836C9.46788 18.3836 10.3582 17.4932 10.3582 16.3949C10.3582 15.2966 9.46788 14.4063 8.36957 14.4063C7.27126 14.4063 6.38091 15.2966 6.38091 16.3949C6.38091 17.4932 7.27126 18.3836 8.36957 18.3836ZM20.8446 16.395C20.8446 17.4933 19.9542 18.3836 18.8559 18.3836C17.7576 18.3836 16.8672 17.4933 16.8672 16.395C16.8672 15.2967 17.7576 14.4063 18.8559 14.4063C19.9542 14.4063 20.8446 15.2967 20.8446 16.395ZM12.6584 17.8047C12.2366 17.8047 11.8946 18.1467 11.8946 18.5685C11.8946 18.9904 12.2366 19.3323 12.6584 19.3323H15.0086C15.4305 19.3323 15.7725 18.9904 15.7725 18.5685C15.7725 18.1467 15.4305 17.8047 15.0086 17.8047H12.6584Z" fill="white"/>
</svg>
