<svg width="39" height="39" viewBox="0 0 39 39" fill="none" xmlns="http://www.w3.org/2000/svg">
<path d="M4.875 9.75H8.125H34.125" stroke="#0071C5" stroke-width="0.5" stroke-linecap="round" stroke-linejoin="round"/>
<path d="M13 9.75V6.5C13 5.63805 13.3424 4.8114 13.9519 4.2019C14.5614 3.59241 15.388 3.25 16.25 3.25H22.75C23.612 3.25 24.4386 3.59241 25.0481 4.2019C25.6576 4.8114 26 5.63805 26 6.5V9.75M30.875 9.75V32.5C30.875 33.362 30.5326 34.1886 29.9231 34.7981C29.3136 35.4076 28.487 35.75 27.625 35.75H11.375C10.513 35.75 9.6864 35.4076 9.0769 34.7981C8.46741 34.1886 8.125 33.362 8.125 32.5V9.75H30.875Z" stroke="#0071C5" stroke-width="0.5" stroke-linecap="round" stroke-linejoin="round"/>
</svg>
