<svg width="39" height="39" viewBox="0 0 39 39" fill="none" xmlns="http://www.w3.org/2000/svg">
<path d="M6 9H9H33" stroke="white" stroke-width="0.5" stroke-linecap="round" stroke-linejoin="round"/>
<path d="M13.5 9V6C13.5 5.20435 13.8161 4.44129 14.3787 3.87868C14.9413 3.31607 15.7043 3 16.5 3H22.5C23.2956 3 24.0587 3.31607 24.6213 3.87868C25.1839 4.44129 25.5 5.20435 25.5 6V9M30 9V30C30 30.7956 29.6839 31.5587 29.1213 32.1213C28.5587 32.6839 27.7956 33 27 33H12C11.2044 33 10.4413 32.6839 9.87868 32.1213C9.31607 31.5587 9 30.7956 9 30V9H30Z" stroke="white" stroke-width="0.5" stroke-linecap="round" stroke-linejoin="round"/>
</svg>
