<svg width="13" height="13" viewBox="0 0 13 13" fill="none" xmlns="http://www.w3.org/2000/svg">
<path d="M2 3H3H11" stroke="white" stroke-width="0.5" stroke-linecap="round" stroke-linejoin="round"/>
<path d="M4.5 3V2C4.5 1.73478 4.60536 1.48043 4.79289 1.29289C4.98043 1.10536 5.23478 1 5.5 1H7.5C7.76522 1 8.01957 1.10536 8.20711 1.29289C8.39464 1.48043 8.5 1.73478 8.5 2V3M10 3V10C10 10.2652 9.89464 10.5196 9.70711 10.7071C9.51957 10.8946 9.26522 11 9 11H4C3.73478 11 3.48043 10.8946 3.29289 10.7071C3.10536 10.5196 3 10.2652 3 10V3H10Z" stroke="white" stroke-width="0.5" stroke-linecap="round" stroke-linejoin="round"/>
</svg>
