<svg width="13" height="13" viewBox="0 0 13 13" fill="none" xmlns="http://www.w3.org/2000/svg">
<path d="M1.625 3.25H2.70833H11.375" stroke="#0071C5" stroke-width="0.5" stroke-linecap="round" stroke-linejoin="round"/>
<path d="M4.33334 3.24999V2.16666C4.33334 1.87934 4.44748 1.60379 4.65064 1.40063C4.85381 1.19746 5.12936 1.08333 5.41668 1.08333H7.58334C7.87066 1.08333 8.14621 1.19746 8.34938 1.40063C8.55254 1.60379 8.66668 1.87934 8.66668 2.16666V3.24999M10.2917 3.24999V10.8333C10.2917 11.1206 10.1775 11.3962 9.97438 11.5994C9.77121 11.8025 9.49566 11.9167 9.20834 11.9167H3.79168C3.50436 11.9167 3.22881 11.8025 3.02564 11.5994C2.82248 11.3962 2.70834 11.1206 2.70834 10.8333V3.24999H10.2917Z" stroke="#0071C5" stroke-width="0.5" stroke-linecap="round" stroke-linejoin="round"/>
</svg>
